<?xml version="1.0" encoding="utf-8"?>
<!-- Generator: Adobe Illustrator 16.0.3, SVG Export Plug-In . SVG Version: 6.00 Build 0)  -->
<!DOCTYPE svg PUBLIC "-//W3C//DTD SVG 1.1//EN" "http://www.w3.org/Graphics/SVG/1.1/DTD/svg11.dtd">
<svg version="1.1" id="Capa_1" xmlns="http://www.w3.org/2000/svg" xmlns:xlink="http://www.w3.org/1999/xlink" x="0px" y="0px"
	 width="331.892px" height="665.406px" viewBox="0 0 331.892 665.406" enable-background="new 0 0 331.892 665.406"
	 xml:space="preserve">
<g>
	<path fill-rule="evenodd" clip-rule="evenodd" d="M93.809,486.39c6.318-5.687,12.333-11.101,18.804-16.924
		c51.809,58.935,103.373,117.593,154.939,176.25c-0.175,0.563-0.35,1.126-0.523,1.688c-10.041,0.222-20.082,0.575-30.12,0.514
		c-1.396-0.009-2.98-1.889-4.136-3.203c-44.078-50.156-88.117-100.348-132.16-150.534C98.446,491.71,96.289,489.229,93.809,486.39z"
		/>
	<path fill-rule="evenodd" clip-rule="evenodd" d="M293.559,627.271c-52.526-59.085-105.054-118.171-157.807-177.511
		c6.261-5.531,12.33-10.894,18.705-16.526c8.414,9.47,16.582,18.643,24.73,27.835c38.434,43.36,76.801,86.778,115.386,130.004
		c3.648,4.088,5.47,8.117,4.62,13.395c-1.225,7.614-2.5,15.22-3.755,22.829C294.813,627.289,294.186,627.28,293.559,627.271z"/>
	<path fill-rule="evenodd" clip-rule="evenodd" d="M293.467,542.168c-38.275-43.255-76.549-86.511-115.247-130.245
		c6.317-5.52,12.396-10.832,18.755-16.388C237.098,439.487,277.566,482.679,293.467,542.168z"/>
	<path fill-rule="evenodd" clip-rule="evenodd" d="M51.718,522.901c6.353-5.505,12.377-10.726,18.938-16.411
		c39.06,43.375,77.978,86.594,116.896,129.812c-0.167,0.307-0.335,0.613-0.503,0.92c-2.559-1.165-5.146-2.271-7.671-3.506
		c-29.19-14.273-54.479-34-77.309-56.803c-16.714-16.694-32.414-34.403-48.556-51.669C52.956,524.646,52.512,523.944,51.718,522.901
		z"/>
	<g>
		<path fill-rule="evenodd" clip-rule="evenodd" d="M153.458,307.85c10.2-21.762,18.076-44.621,26.772-67.075
			c2.757-7.116,4.021-7.984,11.577-5.461c-1.497,40.091-8.096,79.161-24.6,116.433c4.171,0.986,7.324,1.731,10.551,2.494
			c0.525-1.101,0.912-1.822,1.223-2.576c10.754-26.053,18.719-52.932,23.883-80.641c2.042-10.957,3.973-11.711,13.615-5.73
			c2.764,1.713,5.756,3.892,8.795,4.164c7.947,0.712,15.98,0.442,23.976,0.664c2.895,0.08,4.491-0.511,4.8-3.998
			c0.682-7.714,1.938-15.376,2.959-23.06c0.486-0.347,0.973-0.693,1.458-1.04c1.985,1.899,5.738,3.875,5.66,5.685
			c-0.435,10.058-1.8,20.075-2.914,30.75c-8.275,0-16.044,0-23.812,0c-0.144,0.646-0.287,1.292-0.43,1.938
			c14.342,5.767,28.684,11.533,43.113,17.335c-0.42,0.831-1.1,2.151-1.757,3.482c-10.517,21.324-17.038,43.761-16.767,67.632
			c0.133,11.735,2.021,23.466,3.379,35.167c0.705,6.079-1.822,9.932-7.836,8.895c-5.17-0.892-10.587-3.021-14.83-6.079
			c-9.58-6.907-18.402-14.855-27.715-22.146c-13.877-10.861-28.705-19.86-46.403-23.234c-3.651-0.696-5.761,0.092-7.908,3.129
			c-10.604,15.004-22.2,29.168-36.28,41.121c-7.712,6.548-15.264,5.992-22.075-1.694c-1.858-2.098-3.544-4.347-5.69-6.996
			c-6.376,5.479-12.487,10.73-18.648,16.025c-14.489-15.146-22.359-33.654-30.626-51.818c1.459-1.377,2.609-2.462,3.911-3.69
			c-6.681-7.828-12.885-15.57-15.761-25.387c4.511-2.834,8.793-5.395,12.944-8.152c28.709-19.073,50.721-44.532,68.981-73.369
			c4.035-6.373,9.598-7.858,16.062-8.963c0.033,0.605,0.184,1.002,0.047,1.213c-2.356,3.632-4.742,7.245-7.132,10.854
			c-19.257,29.072-41.008,55.857-69.603,76.446c-9.318,6.709-9.308,8.03-1.675,16.924c1.389,1.618,2.372,3.584,3.542,5.39
			c3.659-2.64,6.065-3.897,8.006-5.667c11.8-10.758,23.98-21.166,35.006-32.675c5.053-5.274,9.147-8.921,16.428-5.557
			c0.261,0.121,0.49,0.313,0.932,0.602c-0.376,0.543-0.693,1.094-1.097,1.57c-16.009,18.89-33.755,35.931-53.773,50.563
			c-5.854,4.279-5.88,5.423,0.182,12.115c7.521-6.037,15.734-11.528,22.509-18.432c4.959-5.053,9.802-6.45,17.853-4.63
			c-6.788,6.967-12.915,13.255-18.3,18.782c7.068,8.998,13.692,17.458,20.357,25.885c0.925,1.17,1.874,2.713,3.132,3.14
			c2.209,0.75,5.049,1.636,6.896,0.818c1.446-0.64,2.95-4.172,2.412-5.716c-1.661-4.765-3.756-9.572-6.68-13.648
			c-3.223-4.496-7.55-8.199-11.612-12.475C126.378,354.938,141.834,332.646,153.458,307.85z M212.493,275.664
			c-7.972,27.033-16.104,54.61-24.438,82.869c25.047,8.559,42.805,29.417,65.938,45.452c-3.411-35.756-0.613-69.109,12.721-100.537
			C248.438,294.083,230.338,284.809,212.493,275.664z M116.642,370.588c2.128,2.86,4.237,5.437,6.05,8.207
			c1.799,2.749,3.3,5.694,5.123,8.888c9.288-6.74,15.942-15.198,21.659-24.409c13.675-22.03,21.714-46.265,27.306-71.394
			c1.969-8.848,3.513-17.789,5.25-26.688c-0.587-0.144-1.174-0.287-1.762-0.431C166.747,304.758,151.745,343.857,116.642,370.588z
			 M91.235,388.415c-3.852-3.519-7.143-7.351-11.232-9.909c-2.036-1.273-6.018-1.106-8.204,0.087
			c-1.584,0.864-2.863,4.926-2.181,6.795c1.81,4.95,4.759,9.484,7.402,14.465C82.252,395.644,86.362,392.336,91.235,388.415z"/>
		<path fill-rule="evenodd" clip-rule="evenodd" d="M167.917,165.936c2.944-1.118,5.567-2.113,8.362-3.173
			c-2.673-4.753-5.566-9.18-7.755-13.933c-5.681-12.342-6.186-25.441-4.478-38.641c0.477-3.68,0.161-6.469-2.778-8.837
			c-6.995-5.638-13.808-11.514-20.976-16.92c-2.897-2.186-3.506-4.077-1.508-6.958c5.437-7.84,10.861-15.689,16.379-23.663
			c-0.666-0.299-2.401-1.08-4.136-1.86c-0.152-0.473-0.304-0.946-0.457-1.419c9.254-4.151,18.508-8.302,27.953-12.538
			c-0.696-0.773-1.647-1.828-2.717-3.014c0.382-0.303,0.694-0.758,1.073-0.821c13.318-2.228,26.514-1.484,39.576,1.806
			c3.199,0.806,6.195,1.387,8.263-3.934c1.433,4.047,2.388,6.749,3.511,9.92c1.991,0.097,4.264,0.207,7.369,0.358
			c-0.691-4.553-1.334-8.775-2.09-13.75c1.312,0.813,2.158,1.027,2.326,1.489c4.03,11.037,15.818,17.481,17.656,29.916
			c0.232,1.568,2.607,3.164,4.34,4.103c5.256,2.853,8.696,8.924,8.012,14.854c-0.412,3.574-2.137,4.389-4.912,2.152
			c-1.277-1.03-2.113-2.604-3.383-3.648c-2.152-1.772-4.314-3.684-6.788-4.883c-4.364-2.116-8.614-1.072-11.914,2.285
			c-3.499,3.559-2.067,7.864-0.464,11.692c0.998,2.383,3.195,4.236,4.494,6.532c0.773,1.364,0.846,3.124,1.233,4.706
			c-1.712-0.397-3.533-0.56-5.096-1.281c-0.929-0.428-1.45-1.737-2.174-2.675c-2.522,7.533,1.674,16.607,9.843,20.927
			c-0.422-1.793-0.957-3.368-1.132-4.981c-0.241-2.224-0.186-4.051,2.925-4.73c4.293-0.938,5.813-4.099,4.318-8.345
			c-0.809-2.297-2.299-4.367-3.572-6.484c-1.109-1.845-2.776-3.481-3.384-5.459c-0.441-1.438,0.442-3.284,0.734-4.947
			c1.438,0.56,3.126,0.813,4.27,1.738c3.186,2.576,5.741,6.231,9.274,8.016c8.564,4.326,14.171,0.438,14.505-9.154
			c0.32-9.201-2.933-16.493-10.495-21.923c-1.285-0.923-2.313-2.752-2.66-4.337c-1.373-6.286-4.427-11.323-9.494-15.362
			c-1.82-1.452-3.244-3.698-4.218-5.865c-4.291-9.552-10.283-17.474-19.976-22.093c-1.043-0.498-2.137-0.906-3.236-1.268
			c-0.598-0.196-1.257-0.206-1.933-0.307c0.571,3.637,1.12,7.133,1.825,11.621c-4.85-2.645-8.73-4.761-12.7-6.925
			c-0.514,1.262-0.782,1.584-0.733,1.85c1.409,7.705,1.248,7.868-6.526,7.787c-13.945-0.145-27.987-1.583-41.603,2.922
			c-2.985,0.987-5.928,2.101-9.334,3.314c1.65,2.26,3.043,4.168,4.494,6.155c-5.94,3.705-11.9,6.74-17.035,10.816
			c-5.126,4.069-9.426,9.179-14.087,13.833c0.242,0.417,0.483,0.835,0.725,1.252c2.511,0,5.023,0,8.308,0
			c-2.796,5.117-5.205,9.526-7.939,14.53c-27.246-17.585-56.509-30.164-88.098-38.9c1.504,6.162,2.881,11.735,4.221,17.317
			c1.592,6.629,0.47,12.763-2.83,18.753c-0.891,1.618-0.943,4.54-0.068,6.151c5.135,9.458,7.198,19.282,4.559,29.829
			c-0.708,2.831-0.379,4.77,1.926,6.933c6.055,5.683,9.023,13.074,10.114,21.195c0.348,2.591,1.103,4.033,3.937,4.821
			c12.526,3.479,21.514,10.846,25.229,23.836c0.34,1.19,2.102,2.475,3.429,2.803c10.017,2.477,19.366,6.017,26.371,14.153
			c0.694,0.807,2.701,1.045,3.896,0.745c2.528-0.636,4.923-1.803,7.754-2.899c-7.228-9.696-16.188-16.265-27.383-19.502
			c-3.684-1.065-5.844-2.971-7.514-6.369c-4.91-9.985-12.656-17.047-23.248-20.683c-2.889-0.992-3.765-2.913-4.837-5.545
			c-2.148-5.274-5.218-10.166-7.68-15.325c-1.044-2.188-2.444-4.807-2.084-6.962c1.613-9.652,1.092-18.855-3.595-27.634
			c-0.508-0.951-0.801-2.252-0.623-3.294c1.29-7.568,2.727-15.111,4.229-23.278c6.11,2.26,13.283,4.705,20.295,7.543
			c27.68,11.207,52.834,26.683,75.893,45.576c1.306,1.07,2.095,3.671,1.954,5.468C152.305,130.829,155.884,149.177,167.917,165.936z
			"/>
		<path fill-rule="evenodd" clip-rule="evenodd" d="M228.986,199.475c-8.756,6.907-21.756,5.73-28.811-3.463
			c2.278-0.933,4.622-1.597,6.659-2.786c4.64-2.709,4.735-6.374,0.171-9.156c-2.359-1.438-5.102-2.248-8.117-3.532
			c2.441-5.059,1.871-9.666-3.048-12.997c-3.356-2.273-8.495,3.078-7.925,8.289c0.174,1.595,0.65,3.158,1.024,4.896
			c-2.31,0.772-4.594,1.066-6.287,2.223c-2.082,1.423-5.053,3.544-5.083,5.405c-0.03,1.834,2.964,3.936,4.957,5.507
			c1.225,0.966,3.061,1.158,4.635,1.701c-4.961,9.434-20.804,10.711-28.488,3.239c2.365-3.501,4.604-6.816,6.842-10.13
			c-3.743-2.237-7.486-4.474-11.839-7.075c2.044-5.35-0.823-9.556-7.212-11.89c-6.335,4.921-6.783,6.912-3.132,14.611
			c-1.896,0.924-4.09,1.52-5.628,2.864c-1.894,1.655-4.776,4.244-4.449,5.869c0.438,2.178,3.372,4.065,5.567,5.601
			c1.368,0.958,3.352,1.035,5.136,1.528c-4.712,9.516-16.952,12.228-25.36,6.745c1.354-4.081,2.614-7.878,3.874-11.675
			c-3.961-1.287-7.922-2.573-12.137-3.941c0.005-6.353-1.313-8.106-8.165-9.633c0.062,0.994-0.083,1.949,0.202,2.751
			c3.392,9.553,6.759,19.117,10.385,28.582c0.528,1.377,2.199,2.864,3.63,3.263c12.361,3.446,23.775,1.639,33.519-7.125
			c2.065-1.858,3.633-2.226,6.128-1.072c12.111,5.604,23.79,4.946,35.113-2.44c1.345-0.877,4.296-0.85,5.628,0.051
			c11.07,7.486,22.549,8.281,34.557,2.77c2.434-1.118,4.028-0.888,6.088,1.104c9.421,9.115,20.819,11.183,33.297,8.444
			c1.293-0.284,3.03-1.256,3.46-2.344c4.132-10.469,8.027-21.031,12.042-31.705c-6.305-0.172-7.805,1.608-8.662,8.42
			c-4.631,1.793-9.455,2.455-12.055,5.212c-1.17,1.242,2.097,6.666,3.504,10.626c-5.498,5.058-21.545,2.853-25.529-7.1
			c2.063-0.476,4.232-0.567,5.967-1.482c1.949-1.029,4.561-2.577,4.932-4.315c0.356-1.675-1.395-4.278-2.917-5.752
			c-1.849-1.79-4.429-2.823-6.696-4.18c1.889-8.209,0.763-13.991-2.865-14.699c-3.687-0.719-6.746,4.657-7.275,13.11
			c-4.316,1.402-11.279-0.362-12.201,5.713C221.994,192.317,226.461,195.867,228.986,199.475z"/>
		<path fill-rule="evenodd" clip-rule="evenodd" d="M256.402,182.042c2.744,0,5.18,0,9.157,0
			c-2.063-6.592-3.378-12.709-5.848-18.318c-6.658-15.124-17.886-26.726-30.3-37.229c-6.986-5.911-14.219-11.531-21.343-17.279
			c-6.099-4.921-11.16-10.542-12.19-18.731c-0.661-5.262,0.783-9.776,5.301-13.687c4.377,6.464,10.096,10.438,17.256,12.47
			c1.098,0.312,1.777,2.146,2.621,3.296c1.972,2.687,3.926,5.385,6.44,8.84c0.946-4.279,1.579-7.125,2.204-9.972
			c0.432-1.975-4.123-9.751-6.255-10.498c-8.571-3.002-15.456-7.713-17.452-17.24c-15.627,2.692-23.719,15.603-19.692,31.198
			c2.104,8.148,6.429,14.758,13.315,19.875c10.009,7.437,20.12,14.819,29.47,23.04C246.096,152.763,250.521,160.547,256.402,182.042
			z"/>
		<path fill-rule="evenodd" clip-rule="evenodd" d="M265.885,238.858c3.877-7.171,3.657-7.846-3.949-10.232
			c-22.768-7.144-46.194-9.382-69.933-9.376c-22.214,0.005-44.177,1.903-65.577,8.279c-2.198,0.655-4.324,1.555-6.887,2.487
			c1.168,2.875,2.2,5.416,3.205,7.89C181.995,223.557,204.496,223.725,265.885,238.858z"/>
		<path fill-rule="evenodd" clip-rule="evenodd" d="M71.546,77.063c-0.31,0.333-0.474,0.427-0.494,0.545
			c-1.59,9.339-1.582,9.323,7.169,13.343c17.466,8.024,34.923,16.068,52.429,24.125c2.375-8.417,2.375-8.417-4.972-11.98
			C109.1,95.055,92.525,87.01,75.942,78.983C74.473,78.271,72.948,77.672,71.546,77.063z"/>
		<path fill-rule="evenodd" clip-rule="evenodd" d="M73.557,115.767c0.11,1.737,0.272,3.187,0.28,4.637
			c0.021,3.958,1.526,5.568,5.91,5.873c17.855,1.24,35.673,3.019,53.506,4.6c0.245-7.7-0.733-8.601-8.057-9.366
			C108.096,119.724,91.019,117.723,73.557,115.767z"/>
		<path fill-rule="evenodd" clip-rule="evenodd" d="M147.276,261.875c-2.837-3.629-4.826-6.172-6.869-8.786
			c-2.323,2.323-4.501,4.501-6.995,6.995c3.096,1.923,5.822,3.617,9.392,5.834c-3.183,2.537-5.81,4.631-8.839,7.045
			c2.51,2.072,5.008,4.135,7.751,6.399c1.733-2.877,3.314-5.5,5.439-9.028c2.599,3.086,4.749,5.638,7.305,8.675
			c2.146-2.537,4.227-4.995,6.401-7.564c-3.1-1.871-5.746-3.467-9.577-5.779c3.42-2.995,6.262-5.482,8.665-7.585
			c0.471-3.067,0.916-5.965,1.318-8.589C154.49,250.024,151.238,255.63,147.276,261.875z"/>
		<path fill-rule="evenodd" clip-rule="evenodd" d="M140.385,146.679c-2.686-8.306-3.003-8.563-10.847-8.034
			c-10.736,0.724-21.469,1.496-32.726,2.283c0.532,1.927,1.166,3.602,1.437,5.334c0.531,3.394,2.434,4.063,5.616,3.756
			c11.547-1.117,23.118-1.987,34.678-2.965C139.155,147.001,139.754,146.81,140.385,146.679z"/>
		<path fill-rule="evenodd" clip-rule="evenodd" d="M283.051,121.551c4.678-7.338,3.055-11.135-5.841-11.856
			c-4.325-0.351-6.526-2.379-8.049-6.141c-0.796-1.967-2.399-3.608-4.19-6.196c-2.091,3.308-3.553,5.62-4.859,7.688
			c1.685,2.431,3.387,4.445,4.592,6.721c2.447,4.623,5.483,7.551,11.348,6.921C278.109,118.467,280.4,120.399,283.051,121.551z"/>
		<path fill-rule="evenodd" clip-rule="evenodd" d="M269.17,131.473c-3.652,4.483-7.355,8.328-10.092,12.769
			c-0.948,1.539,0.5,4.554,0.854,6.895c0.58,0.051,1.162,0.102,1.742,0.153c3.634-3.996,7.555-7.772,10.815-12.052
			C275.5,135.286,270.399,134.39,269.17,131.473z"/>
		<path fill-rule="evenodd" clip-rule="evenodd" d="M264.93,157.463c0.913,1.875,1.689,3.47,2.71,5.566
			c2.636-1.747,5.079-3.341,7.495-4.973c2.313-1.561,4.598-3.161,7.122-4.9c-1.132-2.651-2.149-5.035-3.519-8.245
			C273.912,149.299,269.455,153.351,264.93,157.463z"/>
		<path fill-rule="evenodd" clip-rule="evenodd" d="M283.848,161.969c-4.024,1.893-8.323,3.387-11.939,5.875
			c-1.445,0.994-1.383,4.179-2.008,6.367c0.461,0.274,0.922,0.548,1.384,0.822c4.114-1.507,8.624-2.422,12.169-4.785
			c1.635-1.09,1.384-5.009,1.988-7.646C284.91,162.391,284.379,162.18,283.848,161.969z"/>
		<path fill-rule="evenodd" clip-rule="evenodd" d="M233.095,53.529c0.968,0.845,1.903,1.729,2.91,2.526
			c2.173,1.719,4.38,3.393,7.091,5.483c0.846-2.146,1.518-3.853,2.368-6.016c-4.286-1.173-8.137-2.227-11.987-3.281
			C233.35,52.67,233.222,53.1,233.095,53.529z"/>
	</g>
	<path fill-rule="evenodd" clip-rule="evenodd" d="M240.305,338.383c-6.455,0.507-10.227,4.878-13.891,10.412
		c-1.047,1.216-2.154,2.538-3.33,4.043c-4.721-7.439-8.596-14.12-16.67-14.754c0.479,3.126,1.009,6.578,1.57,10.232
		c2.861,2.507,6.247,5.469,10.322,9.037l0.092,0.003c1.861,1.808,3.75,3.609,5.234,5.1c1.504-1.511,3.117-3.131,4.807-4.827
		c4.063-3.559,7.439-6.513,10.295-9.014C239.295,344.961,239.825,341.509,240.305,338.383z"/>
</g>
</svg>
