<?xml version="1.0" encoding="UTF-8"?>
<svg viewBox="0 0 817.75482 478.98621" xmlns="http://www.w3.org/2000/svg">
 <g transform="translate(-14.342 -221.8)">
  <path d="m221.07 263.08c-0.52048-10.019-1.6952-13.926 1.5053-20.678 5.5839-11.78 17.916-20.944 23.138-20.036 8.2143 1.4286 7.5 6.7857 13.929 13.571s16.786 23.214 16.786 23.214z" stroke="#000"/>
  <path d="m57.143 243.79s6.4286 75-7.8571 174.29c-13.23 91.946-20 87.143-22.143 118.57s2.1429 82.857 2.1429 82.857 321.43 7.1429 410 2.1429 301.43-41.429 301.43-41.429-1.4286-27.143-30.714-42.143-86.429-20-120-32.143-134.29-36.429-186.43-102.86-98.802-144.56-121.43-155c-20.911 2.8249-65 5.7143-120.71 4.2857s-104.29-8.5714-104.29-8.5714z" stroke="#000"/>
  <path transform="translate(4.2857 .71429)" d="m236.43 407.72c0 40.041-33.579 72.5-75 72.5s-75-32.459-75-72.5 33.579-72.5 75-72.5 75 32.459 75 72.5z" fill="#fff" stroke="#d8d8d8"/>
  <path transform="matrix(.15487 0 0 .15036 274.86 513.7)" d="m236.43 407.72c0 40.041-33.579 72.5-75 72.5s-75-32.459-75-72.5 33.579-72.5 75-72.5 75 32.459 75 72.5z" fill="none" stroke="#fff" stroke-width="48.765"/>
  <path transform="matrix(.15487 0 0 .15036 356.43 512.49)" d="m236.43 407.72c0 40.041-33.579 72.5-75 72.5s-75-32.459-75-72.5 33.579-72.5 75-72.5 75 32.459 75 72.5z" fill="none" stroke="#fff" stroke-width="48.765"/>
  <path transform="matrix(.14964 .08972 -.06885 .12384 292.49 228.46)" d="m236.43 407.72c0 40.041-33.579 72.5-75 72.5s-75-32.459-75-72.5 33.579-72.5 75-72.5 75 32.459 75 72.5z" fill="none" stroke="#fff" stroke-width="48.767"/>
  <path transform="matrix(.14964 .08972 -.06885 .12384 324.63 286.67)" d="m236.43 407.72c0 40.041-33.579 72.5-75 72.5s-75-32.459-75-72.5 33.579-72.5 75-72.5 75 32.459 75 72.5z" fill="none" stroke="#fff" stroke-width="48.767"/>
  <path transform="matrix(.14964 .08972 -.06885 .12384 360.34 339.53)" d="m236.43 407.72c0 40.041-33.579 72.5-75 72.5s-75-32.459-75-72.5 33.579-72.5 75-72.5 75 32.459 75 72.5z" fill="none" stroke="#fff" stroke-width="48.767"/>
  <path transform="matrix(.14908 .09222 -.06859 .12728 407.47 384.51)" d="m236.43 407.72c0 40.041-33.579 72.5-75 72.5s-75-32.459-75-72.5 33.579-72.5 75-72.5 75 32.459 75 72.5z" fill="none" stroke="#fff" stroke-width="48.767"/>
  <path transform="matrix(.16283 .06493 -.04545 .13726 450.39 418.35)" d="m236.43 407.72c0 40.041-33.579 72.5-75 72.5s-75-32.459-75-72.5 33.579-72.5 75-72.5 75 32.459 75 72.5z" fill="none" stroke="#fff" stroke-width="48.767"/>
  <path transform="matrix(.15908 .05276 -.0444 .11153 510.28 454.59)" d="m236.43 407.72c0 40.041-33.579 72.5-75 72.5s-75-32.459-75-72.5 33.579-72.5 75-72.5 75 32.459 75 72.5z" fill="none" stroke="#fff" stroke-width="48.767"/>
  <path transform="matrix(.15908 .05276 -.0444 .11153 570.28 470.52)" d="m236.43 407.72c0 40.041-33.579 72.5-75 72.5s-75-32.459-75-72.5 33.579-72.5 75-72.5 75 32.459 75 72.5z" fill="none" stroke="#fff" stroke-width="48.767"/>
  <path transform="matrix(.16583 .02215 -.02436 .10702 623.02 490.92)" d="m236.43 407.72c0 40.041-33.579 72.5-75 72.5s-75-32.459-75-72.5 33.579-72.5 75-72.5 75 32.459 75 72.5z" fill="none" stroke="#fff" stroke-width="48.767"/>
  <path d="m806.49 556.12c-6.4286-12.143-15.351-21.733-27.914-24.825-26.017-6.4033-76.071-1.9643-91.429-0.17857s31.964 38.75 50.714 49.464c13.118-5.4077 60.524-13.726 68.628-24.461z" fill="#fff" stroke="#000" stroke-width="5"/>
  <path d="m21.089 602.63s201.35 8.064 344.45 6.0408c141.85-2.0054 365.82-24.965 441.6-60.592 2.32 6.8361 10.572 13.312 13.441 21.255 3.3943 9.3951 12.944 47.158 7.2295 61.443s-99.242 37.388-170.67 48.817-167.23 11.515-242.94 11.515-239.99 8.8958-302.85 6.8829c-62.971-2.0165-81.923-7.3147-94.12-17.143-1.9088-17.697 3.8599-78.22 3.8599-78.22z" fill="#fff" stroke="#000" stroke-linejoin="round" stroke-width="5"/>
  <path d="m605.71 590.58c7.5 30.357 16.071 71.429 18.214 94.286" fill="none" stroke="#000" stroke-width="6"/>
  <path d="m20.714 614.51 14.643 2.5-0.71429 72.143" fill="none" stroke="#000" stroke-width="5"/>
  <path d="m34.643 660.58s16.37 6.4125 42.634 6.9176 158.09-3.002 198.49-3.0305c35.864-0.0253 164.64-1.8838 213.14-4.0406 52.515-2.3354 130.31-11.112 130.31-11.112" fill="none" stroke="#000" stroke-width="8"/>
  <path d="m234.36 256.07c35.633 57.38 43.338 108.72 94.38 166.1s92.454 92.613 162.76 110.73 223.43 37.246 223.43 37.246" fill="none" stroke="#fff" stroke-linecap="round" stroke-width="4.8736"/>
  <path d="m285.71 289.06c1.6964 5.0893 2.8048 5.9822 4.5834 8.9529 22.659-1.1376 25.335-9.9994 40.272-10.059-0.78673-4.8027-7.9798-16.523-14.03-19.599-16.483 4.0652-19.671 7.583-30.825 20.705z" fill="#fff" stroke="#000" stroke-linejoin="round" stroke-width="3"/>
  <path d="m317.16 346.88c1.6964 5.0893 3.787 5.8929 5.5656 8.8636 22.659-1.1376 25.424-8.8387 40.361-8.8984-0.78673-4.8027-7.9798-16.523-14.03-19.599-16.483 4.0652-20.742 6.5115-31.896 19.634z" fill="#fff" stroke="#000" stroke-linejoin="round" stroke-width="3"/>
  <path d="m355.87 398.61c1.6964 5.0893 1.0191 7.0536 2.7977 10.024 18.552-14.53 27.656-15.178 39.736-24.166-0.78673-4.8027-7.2655-13.666-13.316-16.742-16.483 4.0652-18.064 17.762-29.218 30.884z" fill="#fff" stroke="#000" stroke-linejoin="round" stroke-width="3"/>
  <path d="m400.32 446.34c1.6964 5.0893 2.8048 5.9822 4.5834 8.9529 16.725-3.663 27.86-18.586 35.663-23.128-0.78673-4.8027-7.4747-9.641-13.525-12.717-16.483 4.0652-27.058 19.073-26.721 26.892z" fill="#fff" stroke="#000" stroke-linejoin="round" stroke-width="3"/>
  <path d="m453.49 481.11c1.6964 5.0893 3.9338 5.5548 8.8692 6.6314 15.62-9.0481 15.628-19.925 18.609-28.664-0.78673-4.8027-12.296-7.2303-18.347-10.306-5.2332 12.458-4.4685 23.359-9.1318 32.339z" fill="#fff" stroke="#000" stroke-linejoin="round" stroke-width="3"/>
  <path d="m511.83 506.55c3.7136 2.1818 8.1218 3.243 13.001 3.4506 4.2598-12.708 5.5978-23.185 5.4106-32.416-2.3819-4.244-13.901-7.7658-20.639-8.587 4.3941 10.34 3.5378 27.519 2.2269 37.552z" fill="#fff" stroke="#000" stroke-linejoin="round" stroke-width="3"/>
  <path d="m572.93 522.91c4.0138 3.5592 6.4367 4.3589 11.249 2.8236 6.6041-9.7112 3.0666-21.155-0.74113-26.426-3.0827-3.7659-10.223-5.5431-17.001-5.1819 0.68685 9.6175 3.1378 18.55 6.4932 28.784z" fill="#fff" stroke="#000" stroke-linejoin="round" stroke-width="3"/>
  <path d="m634.5 536.73c4.0138 3.5592 6.1842 2.8437 10.997 1.3084 5.9728-7.3121 5.0869-11.938 2.5419-18.976-3.0827-3.7659-15.274-6.5533-22.052-6.1921 1.1919 5.5769 8.0623 13.751 8.5136 23.859z" fill="#fff" stroke="#000" stroke-linejoin="round" stroke-width="3"/>
 </g>
</svg>
